<?xml version="1.0" standalone="no"?>
<!DOCTYPE svg PUBLIC "-//W3C//DTD SVG 20010904//EN"
 "http://www.w3.org/TR/2001/REC-SVG-20010904/DTD/svg10.dtd">
<svg version="1.0" xmlns="http://www.w3.org/2000/svg"
 width="800.000000pt" height="800.000000pt" viewBox="0 0 800.000000 800.000000"
 preserveAspectRatio="xMidYMid meet">

<g transform="translate(0.000000,800.000000) scale(0.100000,-0.100000)"
fill="#000000" stroke="none">
<path d="M0 4000 l0 -4000 2566 0 2565 0 -6 23 c-4 12 -11 38 -17 57 -5 19
-16 48 -24 63 -8 16 -14 37 -14 47 0 10 -20 39 -45 64 -25 26 -45 52 -45 59 0
7 -14 41 -30 75 -28 59 -44 139 -20 102 5 -8 12 -11 16 -7 4 3 1 13 -5 21 -12
14 -24 36 -69 121 -9 17 -22 36 -29 43 -7 7 -13 19 -13 26 0 8 -9 34 -20 59
-24 53 -70 251 -70 299 0 18 -9 65 -20 103 -15 52 -20 100 -20 189 0 112 1
118 19 113 17 -4 18 -2 11 18 -7 18 -4 27 11 41 24 22 27 89 3 98 -15 6 -15 8
1 26 10 11 24 20 32 20 8 0 13 12 13 34 0 19 4 37 9 40 5 3 11 17 13 31 4 18
1 25 -10 25 -13 0 -13 3 1 18 10 10 17 26 17 35 0 9 5 19 11 22 6 4 8 13 5 21
-3 7 4 18 14 24 13 7 20 21 20 40 0 16 5 32 10 35 6 3 10 14 10 24 0 10 11 26
25 35 16 11 25 26 25 42 0 17 7 28 19 31 24 6 35 31 21 48 -8 10 -2 15 27 22
28 6 39 14 41 31 2 13 -3 25 -12 28 -28 11 -17 24 24 30 44 7 60 21 36 30 -26
10 -18 24 14 24 25 0 30 4 30 24 0 14 12 33 30 48 26 22 28 27 15 38 -8 7 -22
10 -30 6 -32 -12 -13 22 30 54 49 37 59 61 23 53 -19 -4 -18 -2 7 16 17 12 31
31 32 43 0 13 4 33 8 46 6 19 4 22 -19 22 -30 0 -34 14 -8 29 14 9 12 10 -13
11 l-30 0 24 19 c18 14 20 20 10 23 -11 4 -12 9 -2 26 11 18 10 23 -10 37 -20
15 -21 17 -5 26 24 13 11 39 -19 39 l-26 0 27 21 c14 11 26 24 26 28 0 4 -16
24 -35 44 -31 32 -33 37 -16 37 16 0 19 5 15 34 -10 87 -13 89 -179 137 -55
17 -110 35 -122 41 -11 6 -26 7 -32 3 -7 -4 -19 -1 -28 7 -9 7 -28 18 -42 24
-46 21 82 4 217 -27 141 -33 132 -32 132 -20 0 5 -16 19 -35 31 -36 22 -42 48
-10 42 9 -2 14 1 11 6 -5 9 -64 22 -174 38 -38 5 -44 4 -49 -15 -3 -12 -12
-21 -20 -21 -13 0 -13 3 -3 15 15 18 15 19 -29 34 -48 16 -57 14 -36 -9 19
-20 18 -21 -6 -11 -13 5 -23 14 -22 19 2 6 -10 21 -25 32 -15 12 -27 29 -27
38 0 8 -6 17 -13 20 -8 2 -10 -2 -5 -14 5 -14 2 -16 -15 -12 -16 4 -22 2 -22
-10 0 -8 -3 -12 -7 -9 -3 4 -12 2 -20 -4 -7 -6 -22 -9 -33 -6 -11 3 -20 1 -20
-4 0 -5 -15 -6 -32 -3 -20 3 -28 2 -21 -3 9 -6 7 -15 -10 -35 -19 -22 -26 -25
-47 -17 -20 8 -22 12 -10 19 8 5 10 10 4 10 -7 0 -30 19 -53 41 -32 33 -39 45
-30 55 6 8 9 27 6 44 -5 22 -3 28 8 24 14 -6 15 12 2 33 -4 6 -2 15 3 18 8 5
6 13 -5 25 -14 15 -15 25 -7 52 6 18 10 60 10 94 0 73 11 147 24 155 10 6 -47
98 -69 112 -7 4 -13 14 -13 22 0 15 -54 60 -71 60 -5 0 -13 5 -17 11 -4 6 -17
14 -29 18 -22 7 -48 -9 -99 -64 -13 -14 -24 -21 -24 -16 0 5 -9 1 -20 -9 -10
-9 -26 -15 -35 -12 -8 4 -15 3 -15 -1 0 -15 -50 -5 -70 13 -20 18 -20 18 -20
-5 0 -16 -4 -20 -15 -16 -8 3 -15 0 -15 -5 0 -7 -11 -9 -25 -7 -14 3 -25 1
-25 -4 0 -5 -9 -4 -20 2 -15 8 -20 8 -20 -1 0 -8 -4 -8 -15 1 -9 7 -15 8 -15
2 0 -8 -50 -24 -85 -27 -5 0 -16 -4 -23 -8 -7 -5 -14 -2 -18 6 -3 9 -17 18
-30 21 -14 4 -22 11 -19 16 4 6 -1 7 -11 3 -13 -5 -16 -3 -11 9 6 16 -21 48
-39 48 -5 0 2 -9 16 -20 l25 -21 -27 12 c-16 7 -28 19 -28 27 0 9 -6 12 -16 8
-8 -3 -13 -2 -9 3 3 5 -1 15 -8 23 -8 7 -12 18 -10 25 2 6 -3 23 -13 38 -12
18 -17 50 -19 113 -1 48 -5 96 -10 106 -6 14 -5 17 3 12 7 -4 12 -15 12 -24 1
-15 2 -15 11 1 8 13 7 22 -1 32 -10 12 -9 16 4 21 9 3 16 13 16 21 0 13 -3 13
-15 3 -12 -10 -15 -10 -15 2 0 8 6 20 12 26 10 10 10 17 0 33 -7 11 -10 25 -6
30 4 8 9 7 15 -2 7 -11 9 -10 9 5 0 12 5 16 15 13 9 -4 18 5 26 28 10 27 16
32 26 23 10 -8 13 -5 13 13 l0 24 20 -25 c10 -14 29 -26 42 -27 49 -5 88 -16
98 -28 6 -8 17 -12 25 -9 8 3 16 -4 20 -16 5 -15 12 -19 26 -15 10 4 19 3 19
-2 0 -12 76 -43 113 -46 10 -1 15 -7 13 -14 -3 -7 1 -13 9 -13 20 0 54 -20 81
-47 12 -13 25 -23 29 -23 4 0 17 -11 29 -24 11 -13 32 -26 46 -28 14 -2 24 -9
23 -15 -2 -7 7 -18 19 -24 12 -6 27 -16 32 -20 51 -43 142 -89 173 -89 27 0
31 -17 6 -22 -32 -6 178 -105 240 -112 31 -4 57 -11 57 -16 0 -5 9 -12 21 -15
19 -6 32 -16 82 -62 16 -16 23 -15 95 6 42 12 107 36 144 52 36 16 71 29 77
29 5 0 13 5 17 12 5 7 2 9 -7 4 -8 -5 2 7 22 26 42 38 72 105 41 93 -72 -30
-243 -55 -372 -55 -69 1 -6 17 86 23 148 9 251 43 351 116 86 62 178 267 203
451 15 109 14 341 -2 545 -20 246 -19 263 20 315 17 24 32 48 32 53 0 9 -50 3
-94 -10 -11 -3 -16 -1 -12 5 3 5 18 13 33 16 55 13 83 29 83 46 0 13 -5 17
-21 13 -14 -4 -22 0 -25 15 -7 23 -40 32 -120 32 -74 0 -196 17 -284 40 -239
62 -669 64 -1009 5 -275 -48 -516 -177 -583 -314 -31 -62 -35 -104 -20 -171
11 -45 9 -68 -2 -32 -5 14 -13 18 -26 15 -15 -4 -20 0 -20 13 0 26 -43 64 -70
64 -21 0 -22 3 -16 58 l7 57 -28 -30 c-15 -17 -37 -43 -48 -58 -15 -20 -35
-31 -68 -39 -26 -5 -47 -14 -47 -18 0 -5 -18 -3 -40 5 -37 13 -44 12 -41 -7 1
-8 -48 9 -64 22 -12 10 -146 58 -255 92 -36 11 -73 24 -82 29 -10 5 -25 9 -33
9 -21 0 -95 33 -95 42 0 5 -5 8 -12 8 -6 0 -20 7 -30 17 -24 21 -32 11 -21
-24 6 -17 17 -28 29 -29 40 -2 276 -86 382 -135 35 -17 65 -36 69 -44 3 -9 18
-15 35 -15 48 0 194 -78 177 -94 -10 -9 -194 55 -369 129 -83 35 -110 40 -110
21 0 -20 4 -20 -83 3 -114 30 -190 40 -362 47 -176 7 -378 -11 -535 -47 -132
-31 -374 -106 -427 -132 -26 -14 -59 -28 -73 -32 -28 -8 -175 -76 -231 -106
-20 -10 -43 -19 -51 -19 -15 0 -185 -85 -293 -147 -77 -44 -132 -65 -215 -82
-98 -21 -135 -29 -159 -37 -18 -5 -23 -4 -19 7 9 27 89 79 153 98 89 28 201
80 266 126 30 20 45 34 34 30 -11 -4 -25 -8 -32 -8 -7 0 -10 -4 -7 -9 3 -4 0
-8 -6 -8 -6 0 -13 6 -16 14 -3 7 -23 17 -45 20 -37 6 -47 26 -13 26 23 0 16
18 -8 22 -13 2 -23 10 -23 18 -1 24 -25 61 -35 55 -6 -3 -7 1 -4 9 3 9 2 16
-4 16 -29 0 -118 93 -182 189 -38 59 -70 110 -70 114 0 15 -65 67 -78 62 -7
-3 -23 -5 -33 -5 -11 0 -18 -4 -15 -8 3 -5 -6 -15 -19 -22 -13 -7 -22 -16 -20
-20 2 -4 -2 -7 -10 -7 -12 0 -15 21 -15 116 0 269 38 2003 45 2009 10 10 46
-11 41 -24 -3 -8 1 -17 9 -21 9 -3 14 -13 13 -22 -2 -11 6 -17 25 -19 15 -2
27 -8 27 -13 0 -5 -12 -9 -27 -10 -27 -1 -26 -1 10 -18 30 -14 54 -17 108 -13
l69 5 11 -33 12 -33 62 6 c35 2 69 0 76 -5 10 -6 7 -8 -11 -7 -28 3 -100 -21
-100 -33 0 -4 12 -9 28 -10 55 -3 78 -6 107 -16 29 -10 28 -10 -17 -11 -26 -1
-49 -5 -53 -10 -3 -6 24 -8 65 -7 48 2 67 -1 60 -8 -17 -17 -12 -36 8 -30 9 3
23 8 31 10 10 3 11 8 2 18 -9 11 -6 15 14 20 13 3 33 2 42 -3 10 -5 32 -15 49
-22 24 -10 31 -19 30 -36 -1 -27 -9 -29 -29 -8 -12 11 -16 12 -19 3 -3 -9 -10
-8 -22 5 -21 21 -27 22 -20 3 3 -8 12 -17 20 -20 8 -3 11 -12 7 -21 -4 -12 -1
-16 13 -13 13 2 18 -2 16 -14 -3 -19 13 -24 23 -8 10 16 28 12 21 -5 -3 -8 0
-15 6 -15 6 0 19 -10 29 -22 15 -16 19 -18 19 -5 0 11 9 15 30 15 17 -1 30 -4
30 -8 0 -7 65 -40 78 -40 5 0 18 9 30 20 l22 21 33 -24 c17 -13 47 -30 65 -38
17 -8 32 -20 32 -26 0 -7 5 -13 10 -13 6 0 10 -4 10 -10 0 -5 9 -19 20 -30 14
-14 20 -16 20 -6 0 21 31 28 50 11 9 -9 25 -13 34 -9 12 5 15 2 10 -10 -4 -11
0 -16 12 -17 18 0 18 -1 0 -8 -14 -5 -16 -10 -8 -15 7 -4 16 -4 22 -1 13 8 44
-16 48 -37 3 -20 -8 -24 -24 -8 -6 6 -14 3 -21 -9 -9 -15 -9 -21 0 -29 18 -14
95 -24 102 -12 3 5 -1 10 -9 10 -18 0 -29 16 -21 30 5 8 11 7 20 0 8 -7 23 -9
34 -5 25 8 35 -9 17 -28 -8 -8 -12 -17 -9 -21 4 -3 -8 -6 -26 -6 -18 0 -30 -4
-26 -10 3 -5 12 -7 19 -4 22 8 29 -15 13 -40 -14 -21 -14 -24 4 -37 11 -7 17
-19 15 -25 -3 -7 -2 -15 2 -19 4 -4 7 -12 7 -18 0 -12 71 -30 115 -29 22 0 23
-1 7 -13 -23 -17 -22 -28 2 -15 30 15 55 12 69 -10 7 -12 18 -17 28 -13 11 4
12 9 5 16 -20 20 -11 30 9 12 19 -18 20 -17 20 5 0 22 1 22 19 6 35 -32 55 1
24 38 -17 20 -17 20 1 6 18 -14 18 -13 13 10 -4 14 -4 20 -1 13 3 -7 12 -9 20
-6 7 3 11 9 8 14 -7 13 10 11 23 -2 7 -7 16 -5 29 8 16 16 17 16 11 1 -5 -14
-1 -17 15 -15 15 1 29 -9 45 -32 23 -34 30 -57 15 -47 -5 3 -15 -6 -23 -20 -7
-15 -24 -30 -38 -35 -33 -13 -87 6 -94 33 -5 18 -8 19 -22 8 -11 -9 -14 -22
-8 -49 3 -20 6 -44 5 -53 0 -10 4 -18 10 -18 6 0 8 -13 6 -29 -2 -17 -1 -28 3
-25 4 2 9 -2 12 -8 3 -9 10 -7 21 7 14 18 17 18 29 4 18 -23 57 -31 57 -11 0
13 3 12 15 -4 8 -10 15 -14 15 -7 0 7 6 10 13 7 10 -3 17 12 26 53 16 77 51
164 62 157 5 -3 7 -9 4 -14 -8 -14 -45 -161 -45 -181 0 -29 49 -34 83 -8 24
17 31 19 38 8 5 -8 9 -20 9 -26 0 -7 5 -13 11 -13 6 0 9 7 5 15 -3 8 -1 15 4
15 5 0 12 -10 15 -23 5 -18 13 -23 44 -24 31 -2 38 2 37 15 -1 11 5 16 16 14
9 -1 19 6 23 18 3 11 10 20 15 20 5 0 12 10 15 23 11 36 108 228 112 223 3 -2
-8 -33 -22 -68 -35 -81 -65 -168 -64 -182 0 -6 4 -2 8 9 8 19 8 19 15 -3 6
-18 11 -21 21 -12 8 7 18 9 24 6 5 -3 11 -2 13 4 2 7 19 7 51 1 43 -8 47 -7
47 11 0 10 -7 35 -15 55 -8 19 -15 41 -14 47 1 20 38 -78 38 -102 1 -13 5 -21
10 -18 5 3 11 -1 15 -9 3 -8 14 -15 23 -15 10 0 29 -7 42 -16 23 -16 23 -16
16 7 -5 19 -4 21 5 9 9 -11 13 -12 17 -2 7 17 23 15 23 -3 0 -18 -4 -18 45 0
53 19 63 18 68 -2 4 -16 5 -16 6 -2 1 22 31 34 31 13 0 -8 4 -13 10 -9 5 3 7
59 3 143 -8 182 -4 739 5 877 6 80 9 -1 10 -298 1 -224 4 -412 7 -416 3 -5 6
-45 6 -89 2 -103 18 -131 21 -37 l2 70 3 -63 c2 -35 0 -69 -5 -75 -5 -7 -7
-32 -3 -57 5 -38 9 -23 24 100 10 80 22 190 27 245 5 55 16 125 25 155 22 74
67 191 72 186 3 -2 -7 -43 -22 -90 -14 -48 -23 -91 -20 -96 3 -6 3 -10 -2 -10
-4 0 -9 -16 -9 -35 -2 -54 8 -34 32 67 13 50 28 96 35 102 9 8 10 7 6 -6 -13
-36 -26 -95 -31 -133 -2 -22 -14 -71 -26 -109 -27 -85 -59 -250 -58 -294 1
-18 6 -35 11 -39 6 -3 7 -1 3 5 -4 7 -3 12 3 12 5 0 12 -6 14 -12 3 -7 6 -2 6
12 2 45 79 371 92 387 7 7 5 13 -3 16 -9 4 -8 6 3 6 9 1 35 26 58 56 46 61 71
74 44 23 -9 -18 -17 -40 -17 -48 -1 -8 -7 -14 -14 -12 -8 1 -11 -2 -7 -8 3 -6
11 -8 16 -5 5 4 9 1 9 -4 0 -6 10 -10 22 -8 17 1 24 -4 26 -20 3 -22 4 -22 29
-6 24 16 25 16 22 -2 -3 -11 -14 -25 -27 -31 -12 -6 -19 -14 -15 -17 3 -4 1
-7 -5 -7 -7 0 -12 -7 -12 -15 0 -8 -5 -15 -11 -15 -5 0 -7 -4 -4 -10 3 -5 1
-10 -4 -10 -6 0 -11 -7 -11 -15 0 -8 -3 -15 -7 -15 -12 0 -59 -90 -71 -132 -6
-21 -8 -46 -5 -57 5 -18 7 -18 20 -6 9 9 12 23 8 36 -4 12 -3 19 1 16 5 -3 9
8 10 24 2 39 11 47 28 23 8 -10 10 -20 5 -22 -5 -2 -9 -10 -9 -19 0 -8 6 -13
13 -10 6 2 20 0 29 -4 20 -11 34 6 16 18 -7 4 -13 20 -13 35 -1 14 3 24 7 22
4 -3 8 4 8 15 0 12 5 21 10 21 13 0 13 -26 0 -50 -7 -13 -7 -21 0 -25 5 -3 11
-1 11 4 1 6 3 16 4 21 1 6 3 13 4 17 0 3 10 -2 21 -12 20 -18 20 -17 20 13 0
25 4 32 20 33 11 1 25 3 30 4 6 1 17 3 25 4 8 0 15 8 15 16 0 8 7 15 16 15 10
0 14 -6 10 -15 -4 -11 2 -15 24 -15 17 0 30 -5 30 -11 0 -6 17 -8 41 -6 28 2
51 13 75 35 19 18 38 32 43 32 4 0 16 9 25 19 10 11 28 21 39 23 13 2 30 19
42 41 12 20 24 34 28 31 3 -4 14 2 24 12 17 17 18 17 21 0 3 -16 5 -16 29 -1
13 9 27 14 30 11 7 -7 73 54 94 89 l19 30 1 -25 c1 -17 3 -19 6 -7 2 9 8 17
13 17 5 0 19 18 31 40 14 25 25 36 30 29 4 -8 11 -4 18 10 7 12 16 19 21 16 5
-3 16 7 24 22 l15 28 -4 -35 -5 -35 20 42 c15 31 34 50 75 73 30 17 57 36 60
41 4 5 11 7 16 4 5 -4 12 1 15 10 5 13 9 14 15 4 6 -10 11 -10 24 1 11 9 19
10 23 3 5 -7 32 -1 82 19 71 27 78 28 128 17 45 -11 53 -16 48 -31 -2 -11 2
-22 10 -25 8 -3 13 -12 10 -19 -3 -8 1 -14 10 -14 12 0 13 -4 3 -22 -9 -17 -9
-23 0 -26 6 -2 9 -8 5 -13 -3 -5 -7 -31 -9 -56 -2 -34 1 -50 13 -59 14 -10 13
-12 -6 -18 -23 -8 -30 -26 -11 -26 8 0 8 -4 0 -14 -7 -8 -10 -29 -8 -45 3 -17
1 -31 -4 -31 -12 0 -34 -52 -43 -100 l-7 -35 21 24 c25 29 25 25 -1 -35 -11
-27 -29 -79 -39 -117 -15 -55 -16 -66 -5 -57 12 10 12 5 -1 -36 -8 -27 -18
-56 -21 -65 -2 -9 0 -20 6 -23 7 -5 7 -15 0 -34 -6 -15 -15 -40 -20 -56 -8
-28 -8 -28 11 -11 19 17 19 17 9 -16 -23 -70 -38 -166 -37 -226 0 -51 3 -60
16 -55 12 4 14 1 8 -14 -18 -44 -20 -57 -5 -49 11 7 11 5 -1 -9 -13 -16 -12
-20 3 -31 11 -8 14 -16 8 -19 -18 -12 0 -37 22 -30 18 6 19 3 14 -25 l-6 -31
87 6 c103 7 241 -5 510 -47 130 -20 216 -29 252 -25 104 10 115 -4 123 -151
l4 -81 -38 -47 c-50 -60 -53 -73 -39 -175 24 -187 30 -273 30 -450 0 -170 -3
-194 -30 -305 -16 -66 -31 -129 -33 -140 -1 -11 -6 -26 -10 -32 -5 -8 -4 -13
2 -13 6 0 11 -11 11 -25 0 -16 6 -25 16 -25 8 0 12 -5 9 -10 -4 -6 -11 -7 -17
-4 -6 4 -8 2 -4 -4 3 -5 1 -12 -6 -14 -7 -3 -5 -7 6 -11 9 -4 15 -3 12 2 -8
12 18 21 34 11 13 -8 93 18 245 80 119 48 186 70 180 60 -4 -6 -11 -10 -16
-10 -13 0 -309 -130 -366 -161 -41 -21 -55 -39 -33 -39 6 0 10 5 10 11 0 6 7
9 15 5 8 -3 15 0 15 6 0 6 9 3 21 -7 17 -16 25 -17 47 -8 15 6 56 24 92 39 36
15 117 40 180 55 133 33 123 32 115 20 -3 -5 26 -1 65 10 39 11 78 19 88 17 9
-3 -3 -9 -28 -15 -158 -39 -454 -145 -484 -174 -6 -5 -19 -9 -30 -9 -18 0 -19
-2 -6 -11 12 -9 11 -10 -8 -6 -12 3 -20 1 -17 -3 3 -5 -7 -18 -22 -29 -27 -20
-28 -21 -9 -36 18 -13 15 -20 -6 -16 -5 0 -8 -3 -8 -9 0 -5 7 -10 15 -10 8 0
15 -5 15 -10 0 -6 7 -10 16 -8 11 2 18 -5 19 -20 1 -12 7 -27 13 -32 7 -6 10
-7 7 -4 -5 8 25 33 39 34 5 0 2 -7 -5 -17 -11 -13 -11 -17 -1 -20 6 -3 12 -11
12 -19 0 -8 7 -14 16 -14 8 0 13 4 10 8 -2 4 3 8 12 9 28 2 210 33 322 53 58
11 110 20 115 19 24 -1 -92 -32 -230 -59 -147 -30 -220 -49 -213 -55 2 -2 21
0 43 5 73 17 339 59 405 64 36 3 54 3 40 0 -14 -3 -97 -18 -186 -34 -88 -16
-201 -39 -251 -50 -85 -20 -91 -23 -86 -43 13 -53 15 -97 3 -97 -6 0 -2 -12
10 -27 20 -25 20 -28 4 -33 -48 -17 24 -21 199 -11 121 7 218 8 262 3 64 -9
57 -10 -90 -12 l-160 -3 137 -6 c75 -3 139 -8 141 -11 3 -3 -38 -6 -91 -7
-109 -1 -373 -30 -385 -42 -4 -5 20 -11 55 -14 35 -3 90 -15 123 -26 46 -16
51 -19 23 -15 -122 17 -206 23 -246 17 -63 -9 -43 -14 182 -53 169 -28 253
-48 219 -49 -7 -1 -74 8 -150 19 -76 10 -175 22 -221 26 -75 6 -82 5 -76 -11
5 -13 9 -14 15 -3 7 10 9 9 9 -4 0 -10 4 -18 9 -18 5 0 8 -8 7 -17 -1 -13 6
-17 24 -16 21 2 22 1 8 -8 -11 -6 -24 -6 -35 -1 -11 6 -26 6 -38 1 -18 -9 -18
-9 3 -5 12 2 22 0 22 -5 0 -5 11 -9 25 -9 36 0 282 -63 267 -68 -7 -2 -35 2
-63 8 -97 23 -57 4 71 -35 71 -22 128 -41 126 -43 -4 -3 -108 21 -288 66 -62
15 -69 15 -84 0 -15 -14 -14 -17 2 -36 10 -12 22 -18 27 -15 6 4 8 -1 4 -10
-4 -11 -1 -17 8 -17 8 0 15 -5 15 -11 0 -6 -9 -8 -20 -4 -28 9 -25 -11 5 -31
14 -9 22 -20 19 -25 -3 -5 1 -9 8 -9 10 0 9 -3 -2 -11 -12 -9 -10 -10 8 -6 18
4 21 3 12 -8 -14 -16 -11 -18 70 -43 111 -34 314 -120 288 -122 -4 0 -37 11
-74 25 -36 14 -103 36 -148 50 l-81 25 30 -25 c17 -13 49 -32 73 -41 23 -9 41
-19 39 -21 -2 -2 -44 12 -93 31 -107 40 -144 50 -144 37 0 -6 -8 -8 -17 -5
-11 4 -14 2 -8 -3 15 -12 16 -54 2 -72 -9 -11 -9 -15 1 -18 6 -3 12 -11 12
-19 0 -8 5 -14 11 -14 5 0 7 -5 4 -10 -3 -6 1 -13 9 -16 9 -3 16 -10 16 -15 0
-6 -9 -5 -20 1 -42 23 -15 -1 113 -98 72 -55 143 -113 157 -128 28 -31 17 -25
-50 28 -80 64 -244 169 -256 164 -7 -3 -15 2 -19 11 -4 12 -8 14 -17 5 -6 -6
-10 -13 -7 -15 2 -2 24 -18 49 -35 25 -17 66 -50 92 -74 26 -24 60 -54 75 -67
38 -31 12 -17 -72 41 -57 40 -72 46 -83 35 -13 -14 -7 -47 9 -47 17 0 9 -29
-11 -40 -25 -13 -26 -35 -2 -45 15 -6 14 -8 -8 -17 -24 -9 -24 -10 -6 -24 17
-12 18 -14 3 -14 -18 0 -23 -15 -8 -24 5 -4 11 -1 13 6 3 7 11 -2 18 -19 8
-17 17 -30 21 -27 4 2 10 0 14 -5 3 -6 -4 -15 -16 -22 l-22 -11 20 -17 c12 -9
24 -27 28 -40 6 -21 5 -23 -11 -17 -16 6 -17 5 -6 -6 11 -11 16 -10 26 5 16
21 27 22 20 2 -3 -8 -2 -20 2 -27 8 -13 10 -18 12 -50 1 -12 10 -18 27 -18 14
0 25 -4 25 -10 0 -5 9 -10 19 -10 15 0 20 -7 20 -33 0 -57 5 -78 17 -73 6 2
17 0 24 -4 11 -7 11 -11 1 -23 -10 -13 -9 -16 9 -19 12 -2 29 -16 38 -32 9
-17 29 -42 45 -58 41 -41 35 -45 -33 -20 -13 5 -13 3 -1 -11 7 -9 22 -17 32
-17 22 0 24 -11 7 -28 -10 -10 -7 -16 12 -29 14 -10 35 -28 46 -40 12 -13 29
-23 38 -23 10 0 14 -5 10 -11 -3 -6 -15 -9 -25 -6 -28 7 -23 -1 13 -23 26 -16
29 -20 15 -26 -20 -7 -23 -30 -4 -37 6 -2 9 -8 5 -12 -4 -4 -14 -2 -23 5 -23
19 -20 -6 5 -37 15 -19 20 -21 20 -9 0 22 13 20 28 -5 9 -14 10 -24 3 -33 -12
-14 7 -66 23 -66 6 0 1 -6 -9 -14 -15 -11 -17 -17 -7 -28 6 -8 9 -17 6 -21 -3
-3 -1 -15 6 -26 6 -12 7 -21 2 -21 -6 0 -12 -10 -16 -22 -5 -18 -8 -20 -15 -9
-5 8 -11 9 -15 3 -3 -5 1 -12 9 -16 8 -3 15 -13 15 -23 0 -12 -3 -14 -8 -6 -5
8 -13 9 -22 3 -8 -6 -10 -10 -5 -10 19 0 70 -55 67 -71 -2 -9 8 -25 22 -36 13
-11 24 -28 23 -39 -2 -14 4 -19 21 -18 18 1 22 -3 19 -18 -3 -11 1 -22 9 -25
8 -3 14 -13 14 -22 0 -14 2 -14 10 -1 6 9 5 17 -2 21 -15 10 0 29 23 29 13 0
19 -7 19 -23 0 -13 5 -28 12 -35 7 -7 9 -13 5 -13 -4 -1 -11 -3 -17 -4 -5 -1
-18 -3 -27 -4 -14 -2 -13 -5 6 -14 19 -9 25 -9 29 1 2 6 10 12 18 12 9 0 13 4
10 9 -4 5 3 7 14 4 11 -3 20 -11 20 -18 0 -8 3 -20 6 -28 4 -12 0 -14 -15 -10
-12 3 -21 9 -21 14 0 5 -4 9 -10 9 -14 0 -50 -38 -50 -52 0 -10 2 -10 9 0 7
12 12 12 30 0 24 -15 23 -33 -2 -33 -9 0 -16 -5 -14 -10 1 -6 5 -9 10 -7 4 1
7 -9 7 -23 0 -27 -23 -34 -37 -13 -10 17 -49 38 -68 38 -8 0 -15 4 -15 8 0 4
-22 16 -50 26 -27 10 -50 22 -50 27 0 5 -9 9 -19 9 -11 0 -22 4 -25 9 -3 5
-17 11 -31 14 -20 3 -25 1 -21 -10 7 -17 -28 -53 -52 -53 -24 0 -42 19 -42 45
0 28 18 45 50 46 23 0 23 1 5 9 -11 5 -15 9 -10 10 6 0 -12 10 -40 21 -27 12
-67 28 -88 37 -21 9 -53 33 -71 54 -25 29 -40 38 -64 38 -25 0 -32 -4 -32 -20
0 -25 -12 -26 -34 -2 -9 11 -42 24 -74 31 -55 12 -119 29 -268 71 -39 11 -80
20 -90 20 -10 0 -44 10 -74 21 -60 23 -141 35 -168 24 -14 -6 -13 -9 8 -17
l25 -10 -38 -17 c-41 -17 -40 -31 1 -31 21 0 22 -2 12 -15 -7 -8 -19 -15 -27
-15 -13 0 -13 -3 -3 -15 10 -12 9 -16 -4 -20 -9 -3 -24 -7 -33 -11 -11 -3 -14
-8 -6 -12 12 -8 1 -46 -16 -57 -24 -14 1 -120 31 -133 4 -2 5 -9 2 -17 -3 -7
-1 -16 4 -19 6 -3 8 -16 5 -27 -4 -15 1 -27 18 -40 19 -15 21 -21 10 -28 -11
-7 -10 -11 7 -22 16 -10 20 -20 15 -37 -4 -18 -1 -24 16 -29 15 -4 19 -9 12
-17 -19 -23 0 -96 25 -96 8 0 19 -12 24 -26 6 -14 19 -28 30 -31 14 -4 19 -11
15 -23 -3 -9 1 -23 10 -30 8 -7 15 -21 15 -31 0 -10 9 -20 20 -24 11 -3 19 -9
18 -13 -3 -8 32 -64 47 -75 5 -4 20 -5 32 -2 20 5 22 2 17 -23 -5 -23 -1 -30
20 -40 14 -6 26 -19 26 -27 0 -9 11 -20 25 -25 16 -6 25 -18 26 -32 1 -13 2
-29 3 -37 0 -8 16 -19 35 -23 30 -8 32 -11 18 -26 -13 -15 -14 -20 -1 -36 8
-11 14 -31 14 -44 0 -23 62 -92 82 -92 5 0 14 -11 20 -25 7 -16 19 -25 35 -25
20 0 22 -4 17 -24 -4 -18 0 -28 15 -38 12 -8 21 -23 21 -39 0 -15 12 -36 28
-52 l28 -27 1142 0 1142 0 0 4000 0 4000 -3589 0 -3590 0 -27 -25 c-15 -14
-31 -25 -37 -25 -6 0 -25 11 -43 25 l-33 25 -340 0 -341 0 0 -4000z m120 3670
c0 -5 -9 -10 -21 -10 -11 0 -17 5 -14 10 3 6 13 10 21 10 8 0 14 -4 14 -10z
m2151 -93 c4 -5 11 -7 15 -4 16 9 31 -18 28 -49 -8 -88 -15 -110 -39 -131 -14
-12 -25 -26 -25 -31 0 -17 -60 1 -85 25 -42 43 -58 154 -26 186 24 24 117 27
132 4z m-1114 -53 c2 -6 -5 -14 -16 -17 -15 -3 -19 0 -18 14 1 21 28 22 34 3z
m-740 -50 c-3 -3 -12 -4 -19 -1 -8 3 -5 6 6 6 11 1 17 -2 13 -5z m743 -14 c0
-5 7 -10 15 -10 8 0 14 -3 13 -7 -4 -16 14 -53 23 -48 12 8 12 -16 0 -34 -8
-12 -14 -12 -39 -2 -40 17 -59 53 -44 86 11 25 32 34 32 15z m-399 -91 c12
-24 -12 -27 -31 -4 -9 11 -16 13 -24 5 -16 -16 -25 -12 -19 8 6 24 59 17 74
-9z m-121 11 c8 -5 11 -10 5 -10 -5 0 -17 5 -25 10 -8 5 -10 10 -5 10 6 0 17
-5 25 -10z m2998 -183 c5 -24 -15 -21 -21 4 -3 13 -1 19 6 16 7 -2 13 -11 15
-20z m-908 -154 c0 -5 3 -18 6 -30 5 -20 2 -23 -20 -23 -28 0 -42 20 -32 45 5
15 46 22 46 8z m470 -18 c0 -8 -4 -15 -10 -15 -5 0 -7 7 -4 15 4 8 8 15 10 15
2 0 4 -7 4 -15z m200 -51 c0 -8 -4 -12 -10 -9 -5 3 -10 10 -10 16 0 5 5 9 10
9 6 0 10 -7 10 -16z m-115 -80 c21 -32 8 -50 -22 -29 -14 10 -19 22 -16 35 7
27 17 25 38 -6z m3070 -38 c13 -13 27 -40 31 -60 7 -40 -1 -61 -12 -30 -19 53
-63 68 -109 38 -36 -24 -31 -33 18 -27 38 4 40 3 24 -10 -10 -8 -26 -13 -36
-10 -21 5 -51 -30 -51 -60 0 -10 -4 -15 -10 -12 -15 9 -12 80 4 119 17 40 60
76 93 76 13 0 35 -11 48 -24z m-3005 -50 c0 -11 -19 -15 -25 -6 -3 5 1 10 9
10 9 0 16 -2 16 -4z m-160 -16 c0 -5 -5 -10 -11 -10 -5 0 -7 5 -4 10 3 6 8 10
11 10 2 0 4 -4 4 -10z m-1685 -68 c-8 -8 -25 10 -19 20 4 6 9 5 15 -3 4 -7 6
-15 4 -17z m1325 8 c0 -11 -4 -20 -10 -20 -5 0 -10 9 -10 20 0 11 5 20 10 20
6 0 10 -9 10 -20z m-330 -214 c0 -9 -30 -14 -35 -6 -4 6 3 10 14 10 12 0 21
-2 21 -4z m2068 -56 c-7 -10 -14 -17 -17 -15 -4 4 18 35 25 35 2 0 -1 -9 -8
-20z m2878 -405 c7 -18 -13 -45 -33 -45 -19 0 -28 27 -13 45 16 19 39 19 46 0z
m-2936 -345 c0 -5 -12 -10 -27 -10 -35 -1 -80 -24 -64 -34 6 -4 11 -14 11 -22
0 -8 -5 -12 -10 -9 -11 7 -31 -37 -26 -57 1 -7 1 -10 -1 -5 -10 16 -24 6 -18
-13 8 -25 -35 -87 -47 -68 -5 9 -8 7 -8 -7 0 -16 -2 -17 -9 -6 -8 12 -12 12
-26 -2 -9 -10 -22 -17 -29 -17 -8 0 -19 -7 -26 -15 -14 -17 -35 -21 -25 -5 4
6 -2 7 -18 1 -32 -12 -165 -13 -172 -1 -4 6 -11 8 -16 5 -5 -4 -12 1 -15 9 -3
9 -12 16 -20 16 -8 0 -14 5 -14 10 0 6 -7 10 -15 10 -8 0 -15 4 -15 9 0 5 7
14 15 21 27 23 18 49 -19 56 -53 9 -34 31 48 54 39 12 96 30 127 41 91 33 419
63 419 39z m1538 -143 c5 -25 -16 -47 -45 -47 -29 0 -39 21 -23 50 14 26 63
24 68 -3z m922 -148 c-8 -5 -36 -7 -61 -3 -51 6 -79 -5 -116 -46 -30 -32 -36
-54 -29 -95 4 -22 13 -35 27 -38 23 -6 21 -31 -2 -33 -39 -2 -78 -19 -114 -49
l-40 -34 27 -10 c20 -8 30 -21 38 -53 7 -24 16 -48 22 -55 5 -7 6 -18 2 -24
-4 -7 0 -17 10 -25 25 -18 30 -71 7 -84 -11 -5 -21 -26 -25 -50 -4 -23 -14
-52 -22 -66 -20 -30 -28 -147 -13 -194 6 -19 22 -46 34 -60 13 -14 30 -39 38
-56 9 -17 23 -34 32 -37 9 -4 15 -19 15 -40 0 -18 5 -38 10 -43 11 -11 2 -74
-10 -74 -12 0 -28 23 -35 53 -11 44 -29 46 -21 2 9 -45 26 -75 43 -75 16 0 16
-12 1 -45 -7 -16 -8 -29 -2 -33 14 -11 54 -70 54 -82 0 -5 5 -10 11 -10 7 0
10 -12 7 -30 -4 -26 -1 -30 19 -30 32 0 30 -33 -2 -54 -19 -12 -30 -14 -44 -6
-26 13 -27 13 -50 -11 -11 -12 -24 -18 -30 -14 -16 9 -13 22 10 44 12 11 25
39 29 63 7 35 5 47 -10 63 -14 15 -18 33 -17 72 3 62 -7 78 -54 87 -29 5 -39
2 -57 -17 -38 -40 -42 -137 -7 -137 9 0 20 -11 25 -25 5 -14 15 -25 21 -25 7
0 10 -13 7 -35 -3 -26 -1 -34 9 -31 20 8 28 -40 10 -59 -23 -22 -51 -20 -44 4
3 13 -5 29 -24 47 -27 26 -50 79 -64 150 -4 21 -14 34 -27 37 -21 6 -21 15 -3
73 6 18 2 22 -24 27 -26 5 -31 11 -31 35 0 15 -5 33 -11 39 -11 11 -8 82 6
133 5 20 1 32 -19 52 -22 21 -24 27 -11 32 22 8 19 31 -7 58 -13 13 -24 38
-25 57 -1 18 -8 39 -14 47 -6 8 -11 37 -10 66 0 28 -3 56 -8 62 -13 16 -16 56
-6 96 5 19 10 58 11 85 1 28 9 83 16 124 11 57 19 76 34 81 10 4 44 15 74 25
30 10 64 24 75 32 11 7 32 13 47 13 33 0 64 30 89 86 27 60 37 66 110 59 35
-4 75 -2 89 3 30 12 54 -3 30 -19z m-3350 -164 c11 -13 8 -14 -20 -8 -23 4
-31 3 -26 -5 9 -15 -16 -27 -105 -50 -40 -11 -121 -34 -179 -51 -114 -34 -197
-41 -268 -22 -66 18 -42 35 39 28 38 -3 71 -2 74 2 7 12 65 19 71 9 12 -19
201 30 239 62 7 6 19 8 28 5 8 -4 41 5 73 19 33 14 60 25 60 26 1 0 7 -7 14
-15z m-1510 -4 c0 -5 12 -13 26 -18 25 -8 23 -10 -35 -28 -34 -10 -64 -22 -67
-27 -3 -4 -14 -8 -25 -8 -16 0 -19 -5 -14 -20 7 -22 -34 -64 -97 -100 -36 -20
-36 -20 -31 0 4 14 0 20 -11 20 -9 0 -16 -4 -16 -10 0 -5 -7 -10 -15 -10 -8 0
-12 6 -9 14 4 11 -3 14 -27 14 -18 -1 -35 4 -37 10 -2 7 -12 6 -30 -3 -31 -17
-37 -14 -24 12 11 21 5 46 -9 37 -5 -3 -9 0 -9 6 0 11 -19 9 -89 -10 -46 -12
-111 -6 -111 10 0 6 7 10 15 10 8 0 15 5 15 11 0 7 11 9 30 6 19 -4 29 -3 27
5 -2 13 140 52 263 72 98 16 280 20 280 7z m1474 -114 c-7 -19 -78 -49 -99
-41 -8 3 -15 2 -15 -4 0 -5 -33 -20 -72 -32 -40 -13 -92 -29 -116 -37 -23 -7
-54 -13 -67 -13 -13 0 -26 -4 -29 -8 -4 -7 -27 -8 -81 -3 -11 2 50 19 135 40
145 35 262 73 320 106 29 15 33 14 24 -8z m-1589 -47 c-10 -11 -20 -18 -23
-15 -7 6 18 35 31 35 5 0 2 -9 -8 -20z m-35 -30 c0 -5 -4 -10 -10 -10 -5 0
-10 5 -10 10 0 6 5 10 10 10 6 0 10 -4 10 -10z m4150 -115 c10 -12 10 -15 -4
-15 -9 0 -16 7 -16 15 0 8 2 15 4 15 2 0 9 -7 16 -15z m54 -90 c-4 -8 -8 -15
-10 -15 -2 0 -4 7 -4 15 0 8 4 15 10 15 5 0 7 -7 4 -15z m276 -375 c0 -6 -27
-9 -62 -9 -58 2 -60 2 -23 9 61 11 85 11 85 0z m-253 -26 c-3 -3 -12 -4 -19
-1 -8 3 -5 6 6 6 11 1 17 -2 13 -5z m-1578 -320 c8 -7 -64 -2 -89 6 -16 6 -6
7 30 3 30 -3 57 -7 59 -9z m74 -11 c-13 -2 -33 -2 -45 0 -13 2 -3 4 22 4 25 0
35 -2 23 -4z m-1209 -365 c-5 -7 -2 -9 8 -6 11 5 15 0 13 -15 -4 -32 -4 -32
-20 -11 -8 11 -15 14 -15 7 0 -7 -5 -13 -11 -13 -6 0 -7 5 -2 13 4 6 8 15 9
20 3 16 4 17 15 17 5 0 7 -5 3 -12z m2784 -5 c-10 -2 -26 -2 -35 0 -10 3 -2 5
17 5 19 0 27 -2 18 -5z m-2728 -28 c0 -14 -6 -25 -14 -25 -9 0 -12 8 -8 25 2
14 8 25 13 25 5 0 9 -11 9 -25z m-235 -115 c-16 -16 -34 -30 -39 -30 -6 0 4
14 23 30 44 39 53 39 16 0z m60 -37 c0 -14 -9 -31 -19 -39 -30 -21 -9 -30 24
-10 30 17 40 10 18 -12 -17 -17 -6 -23 28 -13 25 7 30 6 30 -9 0 -10 -6 -16
-13 -13 -7 3 -13 1 -13 -5 0 -17 55 -7 73 13 14 17 16 17 11 3 -9 -26 3 -22
32 10 23 24 26 25 24 7 -1 -11 -2 -29 -1 -40 1 -17 3 -18 11 -5 9 13 11 13 20
0 6 -10 10 -11 10 -2 0 6 5 12 11 12 5 0 8 -4 4 -9 -6 -11 24 -30 54 -36 12
-2 18 2 17 12 0 9 5 18 13 21 9 3 11 0 7 -7 -4 -7 -1 -22 6 -34 15 -24 13
-127 -3 -127 -5 0 -9 6 -9 14 0 8 -7 16 -15 20 -9 3 -15 0 -15 -9 0 -8 -5 -15
-11 -15 -7 0 -9 11 -5 31 5 27 4 30 -14 24 -17 -5 -20 -2 -21 22 -1 24 -3 21
-15 -17 -9 -28 -12 -34 -10 -15 7 53 -30 84 -54 44 -5 -8 -25 -14 -47 -14 -21
-1 -56 -7 -78 -14 -24 -9 -40 -10 -42 -4 -2 6 -33 0 -75 -13 -74 -25 -105 -25
-47 -1 19 7 60 24 92 37 31 13 57 27 57 31 0 15 -22 21 -33 10 -6 -6 -26 -11
-44 -11 -21 0 -31 -4 -29 -12 1 -7 1 -10 -1 -5 -7 12 -49 8 -98 -9 -62 -21
-78 -13 -28 13 23 12 43 20 45 18 2 -3 19 10 38 27 27 24 30 29 12 24 -29 -10
-28 3 4 37 14 15 23 34 21 41 -9 23 20 53 50 53 24 0 29 -4 28 -24z m2335
-174 c0 -6 -4 -7 -10 -4 -5 3 -10 11 -10 16 0 6 5 7 10 4 6 -3 10 -11 10 -16z
m-2583 -35 c-3 -3 -12 -4 -19 -1 -8 3 -5 6 6 6 11 1 17 -2 13 -5z m433 -51 c0
-20 -3 -24 -11 -16 -7 7 -9 19 -6 27 10 24 17 19 17 -11z m197 -5 c-3 -8 -6
-5 -6 6 -1 11 2 17 5 13 3 -3 4 -12 1 -19z m4067 -60 c33 -13 62 -30 64 -37 3
-10 0 -12 -14 -7 -11 4 -42 10 -71 13 -52 6 -52 6 -50 -22 2 -21 -5 -32 -28
-46 -16 -9 -42 -18 -56 -18 -15 -1 -32 -8 -39 -16 -7 -8 -31 -20 -54 -27 -52
-15 -63 -23 -81 -62 -46 -98 -56 -187 -26 -245 34 -65 71 -162 66 -171 -3 -5
-18 -4 -33 2 -47 20 -109 88 -138 152 -24 53 -28 74 -28 156 -1 84 3 102 27
151 32 67 109 142 174 171 97 43 188 45 287 6z m-1784 -183 c25 -13 42 -24 39
-25 -10 0 -99 40 -99 45 0 9 15 4 60 -20z m166 -582 c-7 -7 -26 7 -26 19 0 6
6 6 15 -2 9 -7 13 -15 11 -17z m-341 -62 c-3 -6 -11 -11 -17 -11 -6 0 -6 6 2
15 14 17 26 13 15 -4z m263 -290 c3 -8 -1 -12 -9 -9 -7 2 -15 10 -17 17 -3 8
1 12 9 9 7 -2 15 -10 17 -17z m-13 -71 c3 -5 -1 -10 -9 -10 -9 0 -16 5 -16 10
0 6 4 10 9 10 6 0 13 -4 16 -10z m35 -35 c0 -9 -6 -12 -15 -9 -8 4 -15 10 -15
15 0 5 7 9 15 9 8 0 15 -7 15 -15z m1766 -800 c3 -8 -15 -40 -43 -75 -26 -34
-66 -85 -88 -113 -103 -135 -323 -326 -470 -407 -150 -82 -173 -92 -203 -85
-16 3 -35 17 -42 30 -21 40 6 67 132 130 190 95 336 210 483 379 108 125 213
189 231 141z m-1476 -160 c11 -13 10 -14 -4 -9 -9 3 -16 10 -16 15 0 13 6 11
20 -6z m81 -88 c11 -3 19 -14 19 -26 0 -14 -5 -19 -14 -15 -9 3 -20 -3 -28
-15 -15 -25 -46 -28 -55 -5 -7 19 16 64 34 64 7 0 14 10 14 23 2 22 2 22 6 1
2 -12 13 -24 24 -27z m-6397 -616 c15 -16 16 -30 10 -90 -6 -66 -5 -71 12 -71
11 0 30 7 42 16 23 16 23 16 4 30 -23 16 -36 54 -18 54 29 0 56 -32 56 -65 0
-58 -82 -105 -120 -70 -17 16 -20 31 -20 117 0 54 4 98 8 98 5 0 17 -9 26 -19z"/>
<path d="M2172 7498 c-31 -31 2 -101 46 -96 18 2 29 12 39 35 12 31 11 32 -21
52 -39 24 -48 25 -64 9z"/>
<path d="M6520 5192 c0 -18 33 -52 50 -52 15 0 17 5 11 27 -5 21 -14 28 -34
30 -15 1 -27 -1 -27 -5z"/>
<path d="M6523 5098 c5 -18 39 -16 44 2 4 13 3 13 -6 0 -7 -10 -11 -11 -11 -2
0 6 -7 12 -16 12 -9 0 -14 -6 -11 -12z"/>
<path d="M6520 5001 c0 -16 8 -39 19 -52 16 -20 21 -21 35 -10 33 28 9 91 -35
91 -14 0 -19 -7 -19 -29z"/>
<path d="M6547 4782 c-24 -27 -22 -72 3 -72 25 0 44 35 36 66 -8 29 -17 30
-39 6z"/>
<path d="M6665 4000 c3 -5 11 -10 16 -10 6 0 7 5 4 10 -3 6 -11 10 -16 10 -6
0 -7 -4 -4 -10z"/>
<path d="M3296 3493 c-6 -14 -5 -15 5 -6 7 7 10 15 7 18 -3 3 -9 -2 -12 -12z"/>
<path d="M300 7483 c1 -26 50 -58 50 -33 0 6 -7 10 -15 10 -9 0 -12 6 -9 15 4
9 0 15 -10 15 -9 0 -16 -3 -16 -7z"/>
<path d="M207 7464 c18 -9 40 -13 49 -10 23 9 17 12 -36 20 l-45 6 32 -16z"/>
<path d="M648 7273 c7 -3 16 -2 19 1 4 3 -2 6 -13 5 -11 0 -14 -3 -6 -6z"/>
<path d="M740 7190 c0 -5 5 -10 10 -10 6 0 10 5 10 10 0 6 -4 10 -10 10 -5 0
-10 -4 -10 -10z"/>
<path d="M780 7176 c0 -9 5 -16 10 -16 6 0 10 4 10 9 0 6 -4 13 -10 16 -5 3
-10 -1 -10 -9z"/>
<path d="M855 7160 c3 -5 10 -10 16 -10 5 0 9 5 9 10 0 6 -7 10 -16 10 -8 0
-12 -4 -9 -10z"/>
<path d="M1020 7150 c0 -5 5 -10 10 -10 6 0 10 5 10 10 0 6 -4 10 -10 10 -5 0
-10 -4 -10 -10z"/>
<path d="M1230 7020 c0 -5 5 -10 10 -10 6 0 10 5 10 10 0 6 -4 10 -10 10 -5 0
-10 -4 -10 -10z"/>
<path d="M390 6990 c0 -5 -6 -10 -12 -10 -36 -1 -71 -110 -46 -142 7 -9 32
-19 56 -23 35 -6 42 -4 42 10 0 11 5 15 14 12 9 -4 21 5 31 20 10 14 12 23 7
19 -6 -3 -13 -2 -16 3 -3 5 3 11 13 14 14 3 17 11 14 31 -3 14 -10 26 -15 26
-5 0 -6 4 -3 10 4 6 -1 7 -12 3 -10 -3 -15 -3 -11 1 12 14 -15 35 -29 24 -9
-7 -13 -7 -13 1 0 6 -4 11 -10 11 -5 0 -10 -4 -10 -10z m24 -71 c-3 -5 -10 -7
-15 -3 -5 3 -7 10 -3 15 3 5 10 7 15 3 5 -3 7 -10 3 -15z"/>
<path d="M1295 6960 c3 -5 13 -10 21 -10 8 0 12 5 9 10 -3 6 -13 10 -21 10 -8
0 -12 -4 -9 -10z"/>
<path d="M3175 6960 c-3 -5 1 -10 10 -10 9 0 13 5 10 10 -3 6 -8 10 -10 10 -2
0 -7 -4 -10 -10z"/>
<path d="M1354 6858 c3 -7 9 -21 12 -30 4 -10 10 -18 15 -18 15 0 10 27 -7 44
-19 19 -28 21 -20 4z"/>
<path d="M3116 6861 c-4 -6 -2 -11 5 -11 10 0 10 -3 2 -11 -14 -14 -47 -4 -38
11 3 5 3 10 -2 10 -26 -1 -89 -240 -65 -248 5 -1 8 -13 6 -25 -3 -12 7 7 21
43 14 36 41 98 60 138 24 50 32 78 26 89 -6 11 -10 12 -15 4z"/>
<path d="M4118 6853 c-1 -5 -16 -15 -33 -23 -16 -9 -34 -25 -39 -36 -5 -11
-38 -40 -72 -65 -61 -42 -76 -59 -53 -59 6 0 1 -12 -10 -26 -12 -15 -21 -32
-21 -39 0 -7 -27 -35 -60 -64 -51 -44 -58 -55 -50 -71 6 -10 10 -23 10 -29 0
-18 -18 -12 -23 7 -3 9 -4 2 -2 -17 2 -37 -21 -94 -36 -86 -12 8 -11 -2 3 -25
9 -14 9 -24 0 -42 -14 -27 -21 -229 -8 -221 5 4 6 -11 2 -33 -4 -21 -9 -54
-13 -71 -6 -37 6 -43 27 -14 7 11 18 18 22 15 5 -3 15 0 23 6 11 9 15 9 15 1
0 -6 5 -11 11 -11 20 0 39 -28 32 -47 -4 -10 8 -1 27 20 31 36 35 38 47 21 7
-10 13 -14 13 -8 0 5 4 3 9 -5 8 -12 14 -13 36 -3 39 18 54 15 48 -8 -6 -22 7
-26 24 -9 7 7 17 8 25 3 7 -5 21 -7 31 -6 10 2 17 -3 17 -13 0 -14 6 -16 35
-11 19 4 52 9 72 12 21 2 41 8 46 13 4 4 9 53 11 109 3 81 1 102 -11 106 -8 3
-11 11 -8 16 11 18 -25 82 -42 76 -9 -4 -13 -1 -11 6 3 7 -4 20 -15 28 -14 12
-22 36 -28 86 -4 38 -11 87 -16 109 -8 42 -8 81 0 178 4 45 2 60 -9 64 -13 5
-13 8 1 23 13 14 13 19 3 23 -10 4 -10 8 2 16 13 10 13 12 0 22 -9 6 -11 12
-5 15 15 6 6 74 -10 74 -7 0 -15 -3 -17 -7z"/>
<path d="M3180 6636 c0 -9 4 -15 9 -12 5 4 11 0 14 -6 2 -7 7 -10 11 -7 3 3
-3 14 -14 24 -18 17 -20 17 -20 1z"/>
<path d="M1650 6612 c6 -13 14 -21 18 -18 3 4 -2 14 -12 24 -18 16 -18 16 -6
-6z"/>
<path d="M3072 6571 c-11 -7 -10 -10 3 -15 20 -7 38 1 30 15 -7 11 -16 11 -33
0z"/>
<path d="M2130 6426 c0 -2 7 -6 15 -10 8 -3 15 -1 15 4 0 6 -7 10 -15 10 -8 0
-15 -2 -15 -4z"/>
<path d="M3535 6078 c-4 -10 -4 -26 0 -35 6 -17 7 -17 16 0 7 11 7 23 0 35 -9
16 -10 16 -16 0z"/>
<path d="M3571 6034 c0 -11 3 -14 6 -6 3 7 2 16 -1 19 -3 4 -6 -2 -5 -13z"/>
<path d="M5465 5700 c3 -5 8 -10 11 -10 2 0 4 5 4 10 0 6 -5 10 -11 10 -5 0
-7 -4 -4 -10z"/>
<path d="M2160 5520 c0 -6 7 -10 15 -10 8 0 15 2 15 4 0 2 -7 6 -15 10 -8 3
-15 1 -15 -4z"/>
<path d="M2387 5519 c7 -7 15 -10 18 -7 3 3 -2 9 -12 12 -14 6 -15 5 -6 -5z"/>
<path d="M560 4942 c-30 -15 -91 -40 -135 -56 -88 -31 -120 -50 -65 -40 84 16
270 98 270 119 0 10 -16 4 -70 -23z"/>
<path d="M5707 4330 c-44 -16 -82 -32 -85 -36 -4 -4 0 -5 8 -2 8 3 47 15 85
28 39 12 74 26 80 31 15 14 -4 10 -88 -21z"/>
<path d="M5516 4299 c2 -4 -4 -9 -13 -11 -15 -3 -14 -5 5 -10 14 -4 20 -2 16
4 -4 6 2 8 17 4 13 -3 18 -3 11 0 -6 3 -10 10 -7 14 3 5 -3 8 -14 7 -11 0 -18
-4 -15 -8z"/>
<path d="M3460 4250 c0 -5 5 -10 11 -10 5 0 7 5 4 10 -3 6 -8 10 -11 10 -2 0
-4 -4 -4 -10z"/>
<path d="M3477 4195 c3 -14 10 -25 15 -25 13 0 6 43 -8 47 -7 2 -10 -6 -7 -22z"/>
<path d="M5060 3996 c-184 -66 -216 -79 -223 -86 -11 -9 19 -69 37 -76 13 -5
79 10 195 43 44 12 51 17 37 25 -11 6 -27 6 -47 -1 -16 -5 -29 -9 -30 -8 -7
19 -5 35 6 31 7 -3 27 4 45 14 21 13 27 22 18 25 -9 4 -7 6 5 6 9 1 16 5 15
10 -2 5 6 17 17 25 30 23 2 20 -75 -8z"/>
<path d="M4910 3817 c-27 -8 -30 -12 -15 -14 11 -2 38 3 60 11 31 11 35 15 15
14 -14 0 -41 -5 -60 -11z"/>
<path d="M4975 3799 c-16 -4 -42 -11 -57 -14 -29 -6 -39 -25 -14 -25 7 0 42
11 77 25 61 23 57 32 -6 14z"/>
<path d="M4973 3759 c-46 -18 -52 -23 -43 -39 5 -10 19 -21 29 -25 11 -3 22
-12 25 -20 4 -11 20 -15 58 -14 31 1 41 4 23 6 -50 6 -62 13 -46 23 8 4 20 6
27 3 6 -2 19 9 27 26 12 25 13 31 2 31 -7 0 -15 7 -19 15 -7 19 -20 18 -83 -6z"/>
<path d="M4933 3577 c-58 -19 -41 -37 36 -37 37 0 90 -2 117 -5 50 -5 51 -2 1
9 -22 5 -27 11 -22 26 6 18 2 20 -47 19 -29 -1 -68 -7 -85 -12z"/>
<path d="M5023 3503 c15 -2 39 -2 55 0 15 2 2 4 -28 4 -30 0 -43 -2 -27 -4z"/>
<path d="M4930 3471 c0 -6 5 -11 11 -11 8 0 8 -4 0 -14 -17 -21 72 -51 100
-33 10 6 19 15 19 20 0 4 4 6 8 3 4 -2 14 -1 21 4 22 13 -21 30 -94 37 -46 4
-65 2 -65 -6z"/>
<path d="M4400 3395 c7 -8 20 -15 29 -15 13 1 13 3 -3 15 -26 19 -42 19 -26 0z"/>
<path d="M4890 3384 c0 -14 3 -14 15 -4 9 7 18 10 22 6 3 -3 0 -6 -7 -6 -9 0
-10 -3 -4 -9 5 -6 34 -12 64 -15 38 -4 47 -3 30 3 -25 9 -25 9 5 11 26 2 23 4
-20 15 -72 19 -105 18 -105 -1z"/>
<path d="M4978 3213 c7 -3 16 -2 19 1 4 3 -2 6 -13 5 -11 0 -14 -3 -6 -6z"/>
<path d="M5018 3203 c7 -3 16 -2 19 1 4 3 -2 6 -13 5 -11 0 -14 -3 -6 -6z"/>
<path d="M5642 2910 c13 -20 28 -27 28 -12 0 4 -9 13 -20 20 -19 12 -20 11 -8
-8z"/>
<path d="M5680 2886 c0 -9 5 -16 10 -16 6 0 10 4 10 9 0 6 -4 13 -10 16 -5 3
-10 -1 -10 -9z"/>
<path d="M5650 2839 c0 -5 5 -7 10 -4 6 3 10 8 10 11 0 2 -4 4 -10 4 -5 0 -10
-5 -10 -11z"/>
<path d="M6000 1979 c0 -5 5 -7 10 -4 6 3 10 8 10 11 0 2 -4 4 -10 4 -5 0 -10
-5 -10 -11z"/>
<path d="M6055 1910 c3 -5 8 -10 11 -10 2 0 4 5 4 10 0 6 -5 10 -11 10 -5 0
-7 -4 -4 -10z"/>
<path d="M6122 1614 c4 -21 22 -23 26 -1 2 10 -3 17 -13 17 -10 0 -15 -6 -13
-16z"/>
<path d="M6150 1469 c0 -5 5 -7 10 -4 6 3 10 8 10 11 0 2 -4 4 -10 4 -5 0 -10
-5 -10 -11z"/>
</g>
</svg>
