<?xml version="1.0" standalone="no"?>
<!DOCTYPE svg PUBLIC "-//W3C//DTD SVG 20010904//EN"
 "http://www.w3.org/TR/2001/REC-SVG-20010904/DTD/svg10.dtd">
<svg version="1.0" xmlns="http://www.w3.org/2000/svg"
 width="430.000000pt" height="484.000000pt" viewBox="0 0 430.000000 484.000000"
 preserveAspectRatio="xMidYMid meet">

<g transform="translate(0.000000,484.000000) scale(0.100000,-0.100000)"
fill="#000000" stroke="none">
<path d="M2903 3477 l2 -1048 -20 24 c-110 132 -441 539 -674 828 -91 112
-199 245 -241 294 -42 50 -116 140 -165 200 -50 61 -114 137 -143 170 -83 93
-117 133 -189 224 -115 145 -199 222 -299 273 -111 58 -188 78 -296 78 -165 0
-292 -52 -409 -169 -88 -88 -151 -203 -169 -311 -8 -45 -10 -449 -8 -1340 l3
-1275 23 -60 c58 -152 175 -293 297 -357 133 -69 147 -71 488 -77 l307 -6 0
990 c0 945 1 989 18 964 9 -14 88 -111 174 -215 86 -104 227 -274 314 -379 86
-104 252 -305 369 -445 117 -140 281 -338 365 -440 179 -216 225 -267 300
-324 131 -101 221 -135 385 -143 195 -10 340 42 458 163 37 38 67 72 67 77 0
4 9 7 20 7 15 0 23 12 35 58 23 81 33 102 49 102 10 0 20 23 31 72 14 65 15
208 12 1348 -3 1340 -4 1360 -46 1360 -13 0 -13 2 -2 9 11 7 11 13 0 32 -17
33 -39 47 -66 44 -19 -2 -21 0 -11 12 9 11 13 11 19 1 7 -10 9 -10 9 1 0 11 4
9 16 -5 14 -18 15 -18 4 4 -6 13 -16 20 -22 16 -8 -5 -9 -1 -4 12 6 15 3 14
-18 -5 -26 -25 -37 -17 -13 8 10 11 9 12 -2 6 -9 -5 -12 -3 -9 6 3 8 11 13 17
11 7 -1 5 8 -5 23 -18 28 -26 33 -18 11 3 -8 1 -17 -4 -20 -6 -3 -8 -16 -5
-29 6 -22 6 -22 -21 3 -23 21 -30 23 -47 12 -19 -12 -20 -11 -14 10 4 13 4 20
0 16 -4 -4 -18 -2 -32 3 -20 7 -29 6 -40 -8 -8 -10 -12 -13 -9 -7 10 20 -39
44 -77 37 -26 -4 -41 -1 -53 12 -14 13 -19 14 -25 3 -7 -10 -9 -9 -9 5 0 9 -6
17 -14 17 -8 0 -16 6 -19 13 -4 10 -7 10 -18 0 -21 -21 -64 -15 -93 12 -18 16
-39 25 -61 25 -23 0 -39 7 -49 21 -11 16 -22 20 -41 16 -15 -2 -38 1 -51 8
l-25 12 23 7 c19 5 20 8 8 15 -15 9 -128 26 -143 22 -5 -1 -5 3 -2 9 5 8 -14
10 -63 8 l-71 -3 2 -1048z m1047 683 c0 -5 -5 -10 -11 -10 -5 0 -7 5 -4 10 3
6 8 10 11 10 2 0 4 -4 4 -10z m17 -72 c-3 -8 -6 -5 -6 6 -1 11 2 17 5 13 3 -3
4 -12 1 -19z"/>
<path d="M3058 4523 c6 -2 18 -2 25 0 6 3 1 5 -13 5 -14 0 -19 -2 -12 -5z"/>
<path d="M3820 4295 c-8 -9 -8 -15 -2 -15 12 0 26 19 19 26 -2 2 -10 -2 -17
-11z"/>
<path d="M1390 290 c-461 -11 -731 -37 -738 -71 -9 -48 433 -76 1273 -83 805
-6 1395 12 1615 51 47 8 91 15 98 15 6 1 12 7 12 13 0 28 -163 50 -460 65
-283 13 -1406 20 -1800 10z"/>
</g>
</svg>
